C:\GBW_MyPrograms\KinderuniversiteitApp\Resultaten\New_group\Reus_v1.mot
version=1
nRows=6
nColumns=31
inDegrees=yes
endheader
                time	         pelvis_tilt	           pelvis_tx	           pelvis_ty	       hip_flexion_r	        knee_angle_r	       ankle_angle_r	       hip_flexion_l	        knee_angle_l	       ankle_angle_l	    lumbar_extension	          arm_flex_r	          arm_flex_l	hamstrings_r/activation	bifemsh_r/activation	glut_max_r/activation	iliopsoas_r/activation	rect_fem_r/activation	  vasti_r/activation	gastroc_r/activation	 soleus_r/activation	tib_ant_r/activation	hamstrings_l/activation	bifemsh_l/activation	glut_max_l/activation	iliopsoas_l/activation	rect_fem_l/activation	  vasti_l/activation	gastroc_l/activation	 soleus_l/activation	tib_ant_l/activation	
          2.64159499	          1.23549280	          7.09055904	          5.64110241	          2.99846118	        -18.11197365	         11.55769880	          9.49998943	        -23.65867227	         11.11310346	         -5.55823468	         -3.69438624	         -3.69438940	          0.11333664	          0.22735057	          0.75749376	          0.15522996	          0.87033103	          0.79688405	          0.43659243	          0.93230291	          0.34463564	          0.16882386	          0.80474548	          0.07831894	          0.79827087	          0.52570474	          0.05329617	          0.17473399	          0.06936673	          0.74441456	
          2.65920562	          1.16726921	          7.13037063	          5.63231150	          3.11242426	        -19.07959487	         12.34123757	         11.44926581	        -27.26365616	          9.85885488	         -5.63740664	         -3.51281737	         -3.51282116	          0.08879410	          0.25433768	          0.73914070	          0.25135199	          0.93467293	          0.89799102	          0.49515049	          0.84412047	          0.39976834	          0.13068220	          0.62496220	          0.06330098	          0.72454819	          0.77894787	          0.42950566	          0.14593179	          0.08767737	          0.79066414	
          2.67681625	          1.07443034	          7.17093895	          5.62413541	          3.18050926	        -19.91865141	         13.03657698	         13.33528822	        -30.92989016	         10.73014184	         -5.67315836	         -3.35651323	         -3.35651676	          0.07060188	          0.28261946	          0.72765838	          0.29274305	          0.94779182	          0.91891051	          0.51918536	          0.83973323	          0.43001795	          0.10125042	          0.48736742	          0.05603188	          0.65804658	          0.89568809	          0.61299678	          0.12597554	          0.09609468	          0.74041680	
          2.69442689	          0.90456211	          7.21289048	          5.61613668	          3.20302398	        -20.54419066	         13.65430810	         15.01026799	        -33.74711324	         10.68228230	         -5.59159299	         -3.25222134	         -3.25222537	          0.06013998	          0.29295318	          0.79208737	          0.26882742	          0.91036756	          0.95590877	          0.54244048	          0.88006971	          0.44979605	          0.07882592	          0.48965562	          0.05565759	          0.60838130	          0.94987284	          0.63622293	          0.11311818	          0.08926259	          0.78776216	
          2.71203752	          0.65103455	          7.25635183	          5.60826623	          3.16336832	        -20.91694051	         14.19907383	         16.46645075	        -35.68385900	         10.20609509	         -5.38239153	         -3.20460342	         -3.20460719	          0.06145647	          0.29865239	          0.84759253	          0.23878151	          0.92920287	          0.97449690	          0.57199437	          0.91870486	          0.46919415	          0.06240807	          0.52015934	          0.05510048	          0.59136021	          0.97035349	          0.58618802	          0.11334643	          0.09072316	          0.83686325	
          2.72964815	          0.33521635	          7.30132847	          5.60069508	          3.02531670	        -21.01377624	         14.67647937	         17.70377733	        -36.82486204	          9.86098322	         -5.07028837	         -3.20945952	         -3.20946398	          0.05974704	          0.29934086	          0.84798274	          0.24210755	          0.94771113	          0.98056474	          0.60573636	          0.94506348	          0.49010503	          0.05518652	          0.55429984	          0.06861251	          0.60356218	          0.95773177	          0.69201965	          0.12088932	          0.10713024	          0.82580862	
